<svg width="512" height="300" viewBox="0 0 512 300" fill="none" xmlns="http://www.w3.org/2000/svg">
<path fill-rule="evenodd" clip-rule="evenodd" d="M187.623 0H145C114.858 0 88.9654 5.97327 67.3216 17.9194C45.6777 30 29.0797 47.2485 17.5274 69.6645C5.84234 92.0805 0 118.926 0 150.201C0 181.343 5.77605 208.054 17.3283 230.336C28.8804 252.752 45.4121 269.933 66.923 281.879C88.4339 293.96 114.128 300 144.004 300H187.623H189.934H223.475H250.165H250.882V104.295H253.272L329.755 298.591H371.185L448.265 104.698H450.654V300H512V0H434.323L352.461 201.544H349.075L267.414 0H250.165H222.28H189.934H187.623ZM187.623 54.3624H147.788C129.066 54.3624 113.397 57.651 100.783 64.2282C88.0356 70.9395 78.4751 81.3423 72.1017 95.4363C65.5949 109.664 62.342 127.919 62.342 150.201C62.342 172.349 65.5949 190.47 72.1017 204.564C78.4751 218.658 88.0356 228.993 100.783 235.571C113.397 242.282 129 245.638 147.589 245.638H187.623V54.3624Z" fill="black"/>
</svg>
